# xmcd
#
# Track frame offsets:
# 150
# 16667
# 32952
# 48552
#
# Disc length: 874 seconds
#
#
# Revision: 0
# Processed by: cddbd v1.5.2PL0 Copyright (c) Steve Scherf et al.
# Submitted via: FreeRIP 2.40 
#
DISCID=29036804
DTITLE=Billie - She Wants You 
DYEAR=1998
DGENRE=Pop
TTITLE0=She Wants You
TTITLE1=She Wants You (Cibola Radio Mix)
TTITLE2=She Wants you (7" Disco)
TTITLE3=Because We Want To
EXTD=
EXTT0=
EXTT1=
EXTT2=
EXTT3=
PLAYORDER=
